<?xml version="1.0" encoding="UTF-8" standalone="no"?>
<!-- Created with Inkscape (http://www.inkscape.org/) -->

<svg
   xmlns:dc="http://purl.org/dc/elements/1.1/"
   xmlns:cc="http://creativecommons.org/ns#"
   xmlns:rdf="http://www.w3.org/1999/02/22-rdf-syntax-ns#"
   xmlns:svg="http://www.w3.org/2000/svg"
   xmlns="http://www.w3.org/2000/svg"
   xmlns:sodipodi="http://sodipodi.sourceforge.net/DTD/sodipodi-0.dtd"
   xmlns:inkscape="http://www.inkscape.org/namespaces/inkscape"
   width="12mm"
   height="12mm"
   viewBox="0 0 12 12"
   version="1.1"
   id="svg2165"
   inkscape:version="0.92.4 5da689c313, 2019-01-14"
   sodipodi:docname="GrayKnob_Night.svg">
  <defs
     id="defs2159" />
  <sodipodi:namedview
     id="base"
     pagecolor="#ffffff"
     bordercolor="#666666"
     borderopacity="1.0"
     inkscape:pageopacity="0.0"
     inkscape:pageshadow="2"
     inkscape:zoom="15.839192"
     inkscape:cx="-4.1879866"
     inkscape:cy="18.174899"
     inkscape:document-units="mm"
     inkscape:current-layer="layer1"
     showgrid="false"
     inkscape:window-width="1887"
     inkscape:window-height="1052"
     inkscape:window-x="33"
     inkscape:window-y="0"
     inkscape:window-maximized="1" />
  <metadata
     id="metadata2162">
    <rdf:RDF>
      <cc:Work
         rdf:about="">
        <dc:format>image/svg+xml</dc:format>
        <dc:type
           rdf:resource="http://purl.org/dc/dcmitype/StillImage" />
        <dc:title></dc:title>
      </cc:Work>
    </rdf:RDF>
  </metadata>
  <g
     inkscape:label="Layer 1"
     inkscape:groupmode="layer"
     id="layer1"
     transform="translate(0,-285)">
    <g
       style="display:inline"
       id="g4831"
       transform="matrix(0.97800567,0,0,0.97800567,-3.9045628,231.51797)">
      <path
         inkscape:connector-curvature="0"
         id="path3223-3-3"
         d="m 16.135154,60.819631 8e-6,4.28e-4 c -0.232886,-0.10548 -0.338969,-1.096629 -0.134814,-1.249816 -0.249601,-0.06206 -0.557444,-0.989438 -0.397204,-1.189915 -0.232833,-0.0077 -0.752549,-0.862468 -0.618881,-1.094633 -0.253386,0.04561 -0.912736,-0.678207 -0.846523,-0.92649 -0.219673,0.08892 -1.038262,-0.482302 -1.011278,-0.747372 -0.212942,0.145545 -1.110702,-0.248809 -1.150244,-0.503112 -0.166945,0.1738 -1.144748,-0.01875 -1.228074,-0.270333 -0.134918,0.219928 -1.1171342,0.224314 -1.2558695,0.0066 -0.082924,0.230466 -1.053609,0.448005 -1.2316226,0.253656 -0.03327,0.256145 -0.9303967,0.659688 -1.1450674,0.516764 0.017217,0.246474 -0.7630488,0.836503 -1.0058059,0.746461 0.057605,0.213109 -0.5861165,0.981895 -0.8523221,0.92455 0.1178769,0.221782 -0.3589062,1.07505 -0.6163296,1.091201 0.1428474,0.173658 -0.1364943,1.135838 -0.401513,1.191648 0.2008995,0.157254 0.1076791,1.129281 -0.1201636,1.248115 0.2052334,0.101423 0.3370086,1.09357 0.1190134,1.251811 0.2496003,0.06206 0.5574433,0.989449 0.3972025,1.189905 0.232833,0.0077 0.7525473,0.862456 0.6188801,1.094633 0.2533854,-0.04561 0.9127372,0.678206 0.8465232,0.926501 0.219674,-0.08892 1.0382624,0.48229 1.0112795,0.747349 0.2129402,-0.145544 1.1106989,0.248865 1.1502412,0.503135 0.1669459,-0.173823 1.1447483,0.01875 1.2280745,0.270333 0.1349188,-0.220126 1.1171353,-0.224501 1.2558713,-0.0066 0.08293,-0.230476 1.053608,-0.448015 1.231622,-0.253667 0.03327,-0.256145 0.930397,-0.659676 1.145069,-0.516752 -0.01722,-0.246496 0.763047,-0.836514 1.005804,-0.746462 -0.0576,-0.213119 0.586116,-0.981894 0.852323,-0.924549 -0.117879,-0.221782 0.358906,-1.075072 0.61633,-1.09119 -0.142849,-0.173669 0.136494,-1.135838 0.401514,-1.191659 -0.202437,-0.157364 -0.09889,-1.140059 0.135956,-1.2501 z"
         style="display:inline;fill:#b3b3b3;stroke:none;stroke-width:0.02506564" />
      <circle
         r="5.3859935"
         cy="60.819698"
         cx="10.127306"
         id="circle1507"
         style="display:inline;fill:#333333;fill-opacity:1;stroke:none;stroke-width:0.27271876;stroke-miterlimit:4;stroke-dasharray:none;stroke-opacity:1" />
      <circle
         r="4.7401261"
         cy="60.819698"
         cx="10.127306"
         id="path827-3"
         style="fill:#ffffff;fill-opacity:1;stroke:#000000;stroke-width:0.24001542;stroke-miterlimit:4;stroke-dasharray:none;stroke-opacity:1" />
      <path
         sodipodi:nodetypes="ccccccccc"
         inkscape:connector-curvature="0"
         id="path829-3"
         d="M 10.5274,56.902207 11.075632,59.864359 10.12752,60.686707 9.1794081,59.864359 9.72764,56.905803 c -2.0080528,0.204776 -3.5360909,1.894788 -3.5382061,3.913258 -4.65e-5,2.174803 1.7629882,3.937829 3.9377871,3.937786 2.174799,4.3e-5 3.937834,-1.762983 3.937787,-3.937786 -2.4e-4,-2.019632 -1.528424,-3.711651 -3.537608,-3.916854 z"
         style="fill:#767676;fill-opacity:1;stroke:none;stroke-width:0.24657647;stroke-miterlimit:4;stroke-dasharray:none;stroke-opacity:1" />
    </g>
  </g>
</svg>
