<?xml version="1.0" encoding="UTF-8" standalone="no"?>
<!-- Created with Inkscape (http://www.inkscape.org/) -->

<svg
   xmlns:dc="http://purl.org/dc/elements/1.1/"
   xmlns:cc="http://creativecommons.org/ns#"
   xmlns:rdf="http://www.w3.org/1999/02/22-rdf-syntax-ns#"
   xmlns:svg="http://www.w3.org/2000/svg"
   xmlns="http://www.w3.org/2000/svg"
   xmlns:sodipodi="http://sodipodi.sourceforge.net/DTD/sodipodi-0.dtd"
   xmlns:inkscape="http://www.inkscape.org/namespaces/inkscape"
   width="7.6500001mm"
   height="7.6500001mm"
   viewBox="0 0 7.6500001 7.6500001"
   version="1.1"
   id="svg2191"
   inkscape:version="0.92.4 5da689c313, 2019-01-14"
   sodipodi:docname="KeyPort_Night.svg">
  <defs
     id="defs2185" />
  <sodipodi:namedview
     id="base"
     pagecolor="#ffffff"
     bordercolor="#666666"
     borderopacity="1.0"
     inkscape:pageopacity="0.0"
     inkscape:pageshadow="2"
     inkscape:zoom="3.959798"
     inkscape:cx="-41.086342"
     inkscape:cy="-65.071106"
     inkscape:document-units="mm"
     inkscape:current-layer="layer1"
     showgrid="false"
     inkscape:window-width="1887"
     inkscape:window-height="1052"
     inkscape:window-x="33"
     inkscape:window-y="0"
     inkscape:window-maximized="1" />
  <metadata
     id="metadata2188">
    <rdf:RDF>
      <cc:Work
         rdf:about="">
        <dc:format>image/svg+xml</dc:format>
        <dc:type
           rdf:resource="http://purl.org/dc/dcmitype/StillImage" />
        <dc:title></dc:title>
      </cc:Work>
    </rdf:RDF>
  </metadata>
  <g
     inkscape:label="Layer 1"
     inkscape:groupmode="layer"
     id="layer1"
     transform="translate(0,-289.35)">
    <g
       transform="translate(-29.405653,272.09205)"
       style="display:inline"
       id="g5915">
      <path
         style="fill:#1a1a1a;fill-opacity:1;fill-rule:nonzero;stroke:none;stroke-width:0.25;stroke-miterlimit:4;stroke-dasharray:none"
         d="m 29.426999,21.082969 c 0,-2.100056 1.703593,-3.803663 3.803654,-3.803663 2.100062,0 3.803655,1.703607 3.803655,3.803663 0,2.101411 -1.703593,3.803631 -3.803655,3.803631 -2.100061,0 -3.803654,-1.70222 -3.803654,-3.803631"
         id="path3943-9"
         inkscape:connector-curvature="0" />
      <path
         inkscape:connector-curvature="0"
         style="fill:#4d4d4d;fill-opacity:1;fill-rule:nonzero;stroke:none;stroke-width:0.23467708;stroke-miterlimit:4;stroke-dasharray:none"
         d="m 33.230554,17.512466 c -1.727612,0 -3.168903,1.228214 -3.499011,2.858741 h 6.998023 C 36.399458,18.74068 34.958168,17.512466 33.230554,17.512466 Z m -3.497461,4.291211 c 0.333474,1.626785 1.772929,2.849954 3.497461,2.849954 1.724533,0 3.163988,-1.223169 3.497461,-2.849954 z"
         id="path3945-4" />
      <path
         inkscape:connector-curvature="0"
         id="path3947-9"
         d="m 30.431662,21.082698 c 0,-1.54511 1.251928,-2.799 2.798991,-2.799 1.545133,0 2.798992,1.25389 2.798992,2.799 0,1.54707 -1.253859,2.8009 -2.798992,2.8009 -1.547063,0 -2.798991,-1.25383 -2.798991,-2.8009"
         style="fill:#cccccc;fill-opacity:1;fill-rule:nonzero;stroke:#000000;stroke-width:0.25;stroke-miterlimit:4;stroke-dasharray:none;stroke-opacity:1" />
      <path
         style="fill:#000000;fill-opacity:1;fill-rule:nonzero;stroke:none;stroke-width:0.35277775"
         d="m 31.231119,21.08691 c 0,-1.1038 0.894348,-1.99954 1.999534,-1.99954 1.103807,0 1.999535,0.89574 1.999535,1.99954 0,1.10519 -0.895728,2.00089 -1.999535,2.00089 -1.105186,0 -1.999534,-0.8957 -1.999534,-2.00089"
         id="path3949-0"
         inkscape:connector-curvature="0" />
      <path
         sodipodi:nodetypes="ccccc"
         inkscape:connector-curvature="0"
         id="path3951-9"
         d="m 32.628014,21.576391 h 1.205279 v 1.146145 c -0.437624,0.172413 -0.778508,0.170351 -1.205279,0 z"
         style="fill:#333333;fill-opacity:1;stroke:none;stroke-width:0.22199896;stroke-miterlimit:4;stroke-dasharray:none;stroke-opacity:1" />
    </g>
  </g>
</svg>
