<?xml version="1.0" encoding="UTF-8" standalone="no"?>
<!-- Created with Inkscape (http://www.inkscape.org/) -->

<svg
   xmlns:dc="http://purl.org/dc/elements/1.1/"
   xmlns:cc="http://creativecommons.org/ns#"
   xmlns:rdf="http://www.w3.org/1999/02/22-rdf-syntax-ns#"
   xmlns:svg="http://www.w3.org/2000/svg"
   xmlns="http://www.w3.org/2000/svg"
   xmlns:sodipodi="http://sodipodi.sourceforge.net/DTD/sodipodi-0.dtd"
   xmlns:inkscape="http://www.inkscape.org/namespaces/inkscape"
   width="12mm"
   height="12mm"
   viewBox="0 0 12 12"
   version="1.1"
   id="svg2165"
   inkscape:version="0.92.4 5da689c313, 2019-01-14"
   sodipodi:docname="RedKnob_Night.svg">
  <defs
     id="defs2159" />
  <sodipodi:namedview
     id="base"
     pagecolor="#ffffff"
     bordercolor="#666666"
     borderopacity="1.0"
     inkscape:pageopacity="0.0"
     inkscape:pageshadow="2"
     inkscape:zoom="15.839192"
     inkscape:cx="2.2338957"
     inkscape:cy="18.216592"
     inkscape:document-units="mm"
     inkscape:current-layer="layer1"
     showgrid="false"
     inkscape:window-width="1887"
     inkscape:window-height="1052"
     inkscape:window-x="33"
     inkscape:window-y="0"
     inkscape:window-maximized="1" />
  <metadata
     id="metadata2162">
    <rdf:RDF>
      <cc:Work
         rdf:about="">
        <dc:format>image/svg+xml</dc:format>
        <dc:type
           rdf:resource="http://purl.org/dc/dcmitype/StillImage" />
        <dc:title></dc:title>
      </cc:Work>
    </rdf:RDF>
  </metadata>
  <g
     inkscape:label="Layer 1"
     inkscape:groupmode="layer"
     id="layer1"
     transform="translate(0,-285)">
    <g
       style="display:inline"
       id="g10289"
       transform="matrix(0.97917159,0,0,0.97917159,-13.896824,193.75347)">
      <path
         inkscape:connector-curvature="0"
         id="path3223-3-3-4"
         d="m 26.327907,99.31502 8e-6,4.28e-4 c -0.232886,-0.10548 -0.338969,-1.096629 -0.134814,-1.249816 -0.249601,-0.06206 -0.557444,-0.989438 -0.397204,-1.189915 -0.232833,-0.0077 -0.752549,-0.862468 -0.618881,-1.094633 -0.253386,0.04561 -0.912736,-0.678207 -0.846523,-0.92649 -0.219673,0.08892 -1.038262,-0.482302 -1.011278,-0.747372 -0.212942,0.145545 -1.110702,-0.248809 -1.150244,-0.503112 -0.166945,0.1738 -1.144748,-0.01875 -1.228074,-0.270333 -0.134918,0.219928 -1.117134,0.224314 -1.255869,0.0066 -0.08292,0.230466 -1.053609,0.448005 -1.231623,0.253656 -0.03327,0.256145 -0.930397,0.659688 -1.145067,0.516764 0.01722,0.246474 -0.763049,0.836503 -1.005806,0.746461 0.05761,0.213109 -0.586117,0.981895 -0.852322,0.92455 0.117876,0.221782 -0.358907,1.07505 -0.61633,1.091201 0.142847,0.173658 -0.136494,1.135838 -0.401513,1.191648 0.200899,0.157254 0.107679,1.129281 -0.120164,1.248115 0.205234,0.101423 0.337009,1.093568 0.119014,1.251808 0.2496,0.0621 0.557443,0.98945 0.397202,1.18991 0.232833,0.008 0.752548,0.86245 0.61888,1.09463 0.253386,-0.0456 0.912738,0.67821 0.846524,0.9265 0.219674,-0.0889 1.038262,0.48229 1.011279,0.74735 0.21294,-0.14554 1.110699,0.24887 1.150241,0.50314 0.166946,-0.17383 1.144749,0.0187 1.228075,0.27033 0.134918,-0.22013 1.117135,-0.2245 1.255871,-0.007 0.08293,-0.23048 1.053608,-0.44802 1.231622,-0.25367 0.03327,-0.25614 0.930397,-0.65967 1.145069,-0.51675 -0.01722,-0.2465 0.763047,-0.83651 1.005804,-0.74646 -0.0576,-0.21312 0.586116,-0.9819 0.852323,-0.92455 -0.117879,-0.22178 0.358906,-1.07507 0.61633,-1.09119 -0.142849,-0.17367 0.136494,-1.13584 0.401514,-1.19166 -0.202437,-0.15736 -0.09889,-1.140059 0.135956,-1.2501 z"
         style="display:inline;fill:#b3b3b3;stroke:none;stroke-width:0.02506564" />
      <circle
         r="5.3859935"
         cy="99.315086"
         cx="20.320059"
         id="circle1507-7"
         style="display:inline;fill:#333333;fill-opacity:1;stroke:none;stroke-width:0.27271876;stroke-miterlimit:4;stroke-dasharray:none;stroke-opacity:1" />
      <circle
         r="4.7401261"
         cy="99.315086"
         cx="20.320059"
         id="path827-3-6"
         style="fill:#ffffff;fill-opacity:1;stroke:#000000;stroke-width:0.24001542;stroke-miterlimit:4;stroke-dasharray:none;stroke-opacity:1" />
      <path
         sodipodi:nodetypes="ccccccccc"
         inkscape:connector-curvature="0"
         id="path829-3-3"
         d="m 20.720153,95.397596 0.548232,2.962152 -0.948112,0.822348 -0.948112,-0.822348 0.548232,-2.958556 c -2.008053,0.204776 -3.536091,1.894788 -3.538206,3.913258 -4.7e-5,2.1748 1.762988,3.93783 3.937787,3.93779 2.174799,4e-5 3.937834,-1.76299 3.937787,-3.93779 -2.4e-4,-2.019632 -1.528424,-3.711651 -3.537608,-3.916854 z"
         style="fill:#b92d2d;fill-opacity:1;stroke:none;stroke-width:0.24657647;stroke-miterlimit:4;stroke-dasharray:none;stroke-opacity:1" />
    </g>
  </g>
</svg>
